<?xml version="1.0" encoding="utf-8"?>
<!-- Generator: Adobe Illustrator 26.2.1, SVG Export Plug-In . SVG Version: 6.00 Build 0)  -->
<svg version="1.1" id="Capa_1" xmlns="http://www.w3.org/2000/svg" xmlns:xlink="http://www.w3.org/1999/xlink" x="0px" y="0px"
	 viewBox="0 0 2122 2122" enable-background="new 0 0 2122 2122" xml:space="preserve">
<rect fill="#2F5BA7" width="2121.32" height="2121.32"/>
<g>
	<path fill="#1A4787" d="M1805.321,923.066c-0.837-39.067-2.202-77.958-4.139-116.672c-2.643-53.765-6.299-107.089-11.054-159.751
		l0.007-0.004l-24.89-32.23l0-0.005l-0.004-0.001l-0.001-0.001v0.001l-1.149-0.275c-4.6-1.101-9.324-2.112-13.96-3.188
		c-0.248-2.818-0.466-5.655-0.72-8.469l0.007-0.005l-24.948-32.23l-0.001-0.005l-0.003-0.001l-0.001-0.001l0,0.001l-1.152-0.275
		c-219.921-52.531-481.869-75.291-726.118-75.292c-272.393,0.008-522.704,28.293-668.295,75.327l-1.041,0.336l-0.098,1.091
		c-7.994,88.767-13.026,179.474-15.103,270.842l-0.045,1.984h0.002c-0.734,32.152-1.103,64.393-1.103,96.67
		c0,176.578,10.969,354.2,32.855,524.367l0.142,1.105l-0.004,0.003l27.982,29.573l0.002-0.009l0.003,0.017
		c4.841,1.262,9.752,2.515,14.705,3.761c0.406,3.228,0.75,6.497,1.163,9.72l0.142,1.106l-0.005,0.003l27.917,29.572l0.002-0.008
		l0.002,0.017c333.564,87.14,938.24,140.509,1357.154,0c5.769-45.022,10.791-90.58,14.973-136.491
		c11.363-122.364,17.264-247.332,17.75-371.951C1806.422,995.461,1806.114,959.219,1805.321,923.066z"/>
	<g>
		<path fill="#392666" d="M1761.253,878.895c-0.837-39.068-2.202-77.958-4.139-116.672c-2.643-53.765-6.299-107.089-11.053-159.75
			l0.006-0.004l-24.89-32.231l0-0.004l-0.003-0.001l-0.001-0.002l0,0.002l-1.149-0.275
			c-219.408-52.531-480.746-75.291-724.426-75.293c-271.758,0.008-521.486,28.293-666.738,75.327l-1.039,0.336l-0.098,1.091
			c-7.975,88.767-12.996,179.474-15.068,270.842l-0.045,1.984h0.001c-0.732,32.153-1.1,64.393-1.1,96.671
			c0,176.578,10.944,354.199,32.778,524.366l0.142,1.105l-0.004,0.004l27.917,29.572l0.002-0.008l0.003,0.017
			c333.564,87.14,938.239,140.509,1357.153,0c5.77-45.022,10.791-90.58,14.974-136.491
			c11.363-122.364,17.263-247.332,17.749-371.951C1762.354,951.289,1762.046,915.048,1761.253,878.895z"/>
		<path fill="#8DCEDE" d="M1733.209,849.402c-239.879-40.153-483.106-60.261-726.332-60.261c-30.39,0-60.78,0.317-91.164,0.944
			c-159.827,3.302-319.472,15.291-477.985,35.983c-40.681,5.311-81.287,11.193-121.803,17.65
			c-0.741,32.328-1.113,64.745-1.113,97.199c0,176.056,10.89,353.154,32.61,522.834c185.382,48.304,454.283,86.177,728.343,86.176
			c218.562,0.002,440.416-24.088,625.805-86.097c5.673-44.364,10.609-89.235,14.803-134.464
			c11.392-122.822,17.325-248.275,17.78-373.334c0.018-5.188,0.029-10.374,0.029-15.559
			C1734.183,910.07,1733.857,879.7,1733.209,849.402z M453.735,1143.787l0.004,0.002l0.911-1.069
			c23.052-27.056,49.274-56.375,77.123-86.068c66.94-71.445,143.072-145.188,205.842-195.559l0.626-0.502l0.78,0.182
			c13.538,3.161,30.347,12.141,45.243,25.902c14.882,13.761,27.83,32.332,33.322,54.691l0.22,0.894l-0.009,0.009l2.59,17.151
			c-52.619,53.992-124.753,127.013-190.971,194.295c65.364,66.331,136.016,137.83,187.749,190.997l0.64,0.658l-0.219,0.893
			c-0.922,3.75-2.055,7.392-3.371,10.925c2.084,2.138,4.144,4.254,6.171,6.337c-3.973,16.168-11.936,30.36-21.726,42.144
			c-16.797,20.217-38.972,33.343-55.61,37.189c-62.67-50.286-138.771-123.998-205.668-195.399
			c-27.835-29.676-54.038-58.977-77.071-86.006l-2.7-7.251l-3.873-10.401l-0.005-0.007l0.002-0.002L453.735,1143.787z
			 M869.708,1436.797c-2.61-2.04-5.15-4.193-7.609-6.471l-6.316-17.166l0.014-0.006l0.328-1.001
			c64.176-196.253,143.673-387.47,237.522-571.328l0.364-0.712l0.782-0.157c8.088-1.622,16.352-2.467,24.532-2.467
			c15.917,0.001,31.521,3.191,44.855,10.114c13.133,6.814,24.051,17.293,30.724,31.801c0.101,0.219,0.204,0.436,0.303,0.657
			l0.297,0.664l-0.002,0.005l2.605,17.667c-79.075,184.163-161.281,378.95-228.925,567.628
			C933.498,1467.003,897.534,1458.547,869.708,1436.797z M1239.994,1372.217c-0.966-2.78-1.817-5.627-2.537-8.538
			c-2.495-5.511-4.548-11.323-6.046-17.416l-0.219-0.893l0.641-0.658c52.138-53.584,123.494-125.788,189.285-192.556
			c0.958-0.972,1.915-1.944,2.87-2.914c-64.997-66.03-135.112-137.025-186.569-189.823l-0.49-1.346l-5.745-15.807l0.011-0.003
			l-0.005-0.005l0.22-0.893c5.492-22.359,18.439-40.93,33.322-54.691c14.896-13.76,31.706-22.741,45.244-25.902l0.78-0.182
			l0.626,0.502c62.77,50.371,138.9,124.114,205.839,195.558c27.852,29.695,54.072,59.014,77.124,86.069l0.916,1.074l-0.005,0.006
			l2.24,17.652c-0.143,0.168-0.288,0.337-0.431,0.505c-22.93,26.889-48.98,56.009-76.64,85.501
			c-66.897,71.401-143,145.113-205.67,195.399C1290.195,1437.182,1253.576,1411.287,1239.994,1372.217z"/>
		<path fill="#C582B6" d="M1732.61,824.362c-2.054-76.401-6.181-152.253-12.385-226.848c-0.684-8.219-1.394-16.423-2.127-24.612
			c-218.808-52.251-479.458-74.928-722.503-74.927c-270.854-0.008-519.909,28.181-664.682,74.832
			c-2.325,25.959-4.396,52.084-6.215,78.344c-0.681,9.827-1.329,19.671-1.939,29.533c-0.348,5.629-0.685,11.263-1.01,16.902
			c-0.163,2.82-0.323,5.641-0.479,8.463c-0.313,5.645-0.616,11.295-0.906,16.949c-0.291,5.655-0.57,11.314-0.838,16.978
			c-0.165,3.502-0.326,7.006-0.483,10.511c-0.627,14.022-1.182,28.07-1.668,42.139c-0.364,10.552-0.688,21.116-0.973,31.69
			c-0.144,5.344-0.277,10.69-0.401,16.038c228.374-36.365,459.624-54.524,690.875-54.524c243.199,0,486.399,20.088,726.26,60.204
			C1732.98,838.806,1732.804,831.582,1732.61,824.362z M479.327,755.172c-20.022-0.001-38.239-7.746-51.832-20.411
			c-14.959-13.937-24.318-33.832-24.319-55.919c0.001-24.703,11.708-46.664,29.864-60.614c12.827-9.856,28.874-15.714,46.286-15.714
			c3.43,0,6.805,0.229,10.114,0.669c23.509,3.127,43.631,17.003,55.287,36.538c6.827,11.441,10.751,24.821,10.751,39.121
			C555.479,720.999,521.386,755.171,479.327,755.172z M706.639,730.775c-15.567,0-30.041-4.682-42.1-12.717
			c-20.523-13.673-34.05-37.058-34.05-63.611c0-42.157,34.091-76.328,76.151-76.328c23.81,0,45.065,10.952,59.029,28.104
			c10.702,13.145,17.121,29.932,17.121,48.224C782.788,696.603,748.698,730.774,706.639,730.775z M933.951,726.576
			c-12.258,0-23.84-2.905-34.099-8.062c-24.937-12.538-42.053-38.399-42.054-68.268c0.001-42.157,34.094-76.328,76.153-76.328
			c21.133,0,40.254,8.63,54.051,22.563c13.66,13.796,22.099,32.791,22.099,53.765C1010.1,692.403,976.008,726.575,933.951,726.576z"
			/>
		<path fill="#FAB853" d="M814.156,941.268c-5.421-21.193-17.827-38.935-32.131-52.159c-14.201-13.142-30.293-21.788-42.977-24.922
			c-62.45,50.194-138.236,123.613-204.868,194.732c-27.448,29.264-53.308,58.163-76.1,84.877
			c22.792,26.708,48.653,55.607,76.101,84.873c14.489,15.464,29.411,31.038,44.534,46.458
			c54.427,55.494,111.464,108.996,160.334,148.273c12.682-3.114,28.775-11.759,42.976-24.901
			c14.304-13.223,26.71-30.964,32.131-52.139c-16.573-17.03-35.068-35.921-54.696-55.91
			c-44.98-45.806-95.905-97.364-143.276-145.454l-1.145-1.163l1.145-1.162C684.181,1073.558,759.558,997.281,814.156,941.268z"/>
		<path fill="#FAB853" d="M1162.662,850.543c-12.761-6.63-27.857-9.745-43.336-9.743c-7.69,0-15.472,0.77-23.103,2.251
			c-72.199,141.516-135.889,287.395-190.629,436.572c-16.111,43.905-31.448,88.095-45.996,132.544
			c26.869,24.429,63.133,34.619,99.691,34.62c1.44,0,2.88-0.017,4.32-0.047c23.193-64.648,48.087-130.002,73.974-195.394
			c49.467-124.954,102.557-250.041,154.311-370.582C1185.535,866.975,1175.228,857.076,1162.662,850.543z"/>
		<path fill="#FAB853" d="M1514.813,1058.918c-16.462-17.571-33.483-35.281-50.724-52.749
			c-52.541-53.232-107.12-104.189-154.14-141.982c-12.684,3.134-28.778,11.78-42.978,24.922
			c-14.305,13.224-26.71,30.965-32.13,52.159c39.147,40.163,88.977,90.744,139.113,141.633
			c19.786,20.083,39.618,40.214,58.859,59.771l1.144,1.162l-1.145,1.163c-68.042,69.074-143.42,145.309-197.972,201.364
			c5.42,21.174,17.826,38.915,32.13,52.138c14.201,13.142,30.295,21.787,42.976,24.901
			c62.45-50.192,138.235-123.613,204.866-194.732c27.45-29.265,53.308-58.164,76.101-84.872
			C1568.122,1117.082,1542.263,1088.183,1514.813,1058.918z"/>
		<path fill="#7FC5A6" d="M530.84,627.211c-13.189-13.216-31.391-21.386-51.513-21.387c-20.121,0.001-38.322,8.171-51.511,21.387
			c-4.122,4.133-7.752,8.756-10.795,13.777c-6.69,11.037-10.541,23.991-10.542,37.854c0.002,20.169,8.152,38.413,21.337,51.633
			c13.189,13.216,31.39,21.386,51.511,21.387c20.122-0.001,38.324-8.17,51.513-21.387c7.326-7.345,13.097-16.243,16.78-26.159
			c2.945-7.93,4.556-16.512,4.557-25.474C552.176,658.674,544.025,640.43,530.84,627.211z"/>
		<path fill="#F08065" d="M758.151,602.815c-13.188-13.216-31.389-21.385-51.511-21.386c-20.123,0.001-38.324,8.17-51.512,21.386
			c-3.643,3.652-6.901,7.689-9.71,12.043c-7.356,11.404-11.626,24.992-11.626,39.589c0.001,20.169,8.151,38.413,21.336,51.632
			c13.188,13.216,31.389,21.385,51.512,21.386c20.122-0.001,38.323-8.17,51.511-21.386c6.314-6.33,11.471-13.812,15.134-22.105
			c3.986-9.027,6.201-19.015,6.202-29.526C779.486,634.277,771.336,616.034,758.151,602.815z"/>
		<path fill="#F7CE57" d="M1006.797,649.989c-0.07-20.067-8.206-38.212-21.335-51.375c-13.189-13.216-31.39-21.385-51.511-21.386
			c-20.123,0.001-38.324,8.17-51.513,21.386c-7.991,8.011-14.132,17.868-17.731,28.88c-2.34,7.159-3.606,14.805-3.606,22.751
			c0.001,20.169,8.152,38.414,21.337,51.633c13.188,13.217,31.391,21.386,51.513,21.388c20.121-0.001,38.322-8.171,51.511-21.388
			c13.185-13.219,21.336-31.463,21.337-51.633C1006.798,650.161,1006.797,650.075,1006.797,649.989z"/>
		<path fill="#73C8DE" d="M1734.183,940.473c0-30.403-0.326-60.773-0.974-91.071c-239.879-40.153-483.106-60.261-726.332-60.261
			c-30.39,0-60.78,0.317-91.164,0.944c279.016,13.999,555.954,70.083,818.441,165.947
			C1734.173,950.844,1734.183,945.658,1734.183,940.473z"/>
		<path fill="#73C8DE" d="M1075.766,1549.927c218.562,0.002,440.416-24.088,625.805-86.097
			c5.673-44.364,10.609-89.235,14.803-134.464c-84.008,39.403-171.957,70.486-261.732,93.641
			c-43.513,11.212-87.443,20.587-131.667,28.255c62.469-51.173,136.618-123.269,202.139-193.202
			c28.484-30.37,55.3-60.356,78.873-88.019c-2.277-2.673-4.586-5.368-6.923-8.082c-22.93,26.889-48.98,56.009-76.64,85.501
			c-66.897,71.401-143,145.113-205.67,195.399c-24.558-5.677-61.177-31.571-74.76-70.641c-1.513,1.553-3.015,3.096-4.499,4.62
			c9.63,39.192,42.169,67.046,68.211,77.654c-107.802,17.455-217.254,24.905-326.647,24.182
			c68.902-192.115,152.591-390.414,233.098-577.914c-3.785-8.456-8.994-15.543-15.251-21.354c0.101,0.219,0.204,0.436,0.303,0.657
			l0.297,0.664l-0.002,0.005l2.605,17.667c-79.075,184.163-161.281,378.95-228.925,567.628c-35.686,0.977-71.65-7.478-99.475-29.228
			c-0.667,2.029-1.335,4.057-1.999,6.087c23.043,21.331,52.85,32.312,83.921,35.476c-35.101-0.635-70.182-2.097-105.187-4.325
			c-81.475-5.165-163.612-14.657-240.55-42.07c-76.983-27.365-149.078-74.117-194.967-141.832
			c-53.95-79.544-67.119-182.354-48.841-276.777c12.851-66.555,40.209-129.292,75.642-187.287
			c-40.681,5.311-81.287,11.193-121.803,17.65c-0.741,32.328-1.113,64.745-1.113,97.199c0,176.056,10.89,353.154,32.61,522.834
			C532.805,1512.056,801.706,1549.929,1075.766,1549.927z"/>
		<path fill="#C068A6" d="M1733.137,846.034c-0.157-7.229-0.333-14.453-0.527-21.672c-467.521-80.097-948.685-80.316-1416.207-0.046
			c-0.144,5.344-0.277,10.69-0.401,16.038c228.374-36.365,459.624-54.524,690.875-54.524
			C1250.076,785.83,1493.276,805.919,1733.137,846.034z"/>
		<path fill="#C068A6" d="M479.327,602.514c3.43,0,6.805,0.229,10.114,0.669c401.574-102.143,828.496-105.103,1230.784-5.669
			c-0.684-8.219-1.394-16.423-2.127-24.612c-218.808-52.251-479.458-74.928-722.503-74.927
			c-270.854-0.008-519.909,28.181-664.682,74.832c-2.325,25.959-4.396,52.084-6.215,78.344
			c35.859-11.794,71.985-22.77,108.342-32.923C445.868,608.372,461.915,602.514,479.327,602.514z"/>
		<path fill="#73C8DE" d="M1237.418,959.42l-0.49-1.346c-0.522,1.714-1.001,3.453-1.433,5.215
			c51.26,52.598,120.617,122.84,185.621,188.868c0.958-0.972,1.915-1.944,2.87-2.914
			C1358.99,1083.213,1288.875,1012.219,1237.418,959.42z"/>
		<path fill="#73C8DE" d="M523.559,1256.512c68.179,72.772,145.74,147.893,209.612,199.145
			c20.074-4.639,48.057-22.538,65.491-49.988c-16.797,20.217-38.972,33.343-55.61,37.189
			c-62.67-50.286-138.771-123.998-205.668-195.399c-27.835-29.676-54.038-58.977-77.071-86.006l-2.7-7.251
			c-4.293,4.948-8.498,9.836-12.602,14.653C468.487,1196.406,495.193,1226.267,523.559,1256.512z"/>
		<path fill="#C068A6" d="M479.327,755.172c-20.022-0.001-38.239-7.746-51.832-20.411c13.683,19.361,36.211,31.999,61.685,31.999
			c41.722,0,75.544-33.9,75.544-75.72c0-19.8-7.583-37.825-19.996-51.319c6.827,11.441,10.751,24.821,10.751,39.121
			C555.479,720.999,521.386,755.171,479.327,755.172z"/>
		<path fill="#C068A6" d="M765.668,606.223c10.702,13.145,17.121,29.932,17.121,48.224c-0.001,42.156-34.091,76.327-76.15,76.328
			c-15.567,0-30.041-4.682-42.1-12.717c13.784,14.748,33.388,23.964,55.14,23.964c41.722,0,75.544-33.903,75.544-75.723
			C795.224,641.827,783.639,620.065,765.668,606.223z"/>
		<path fill="#C068A6" d="M988.002,596.481c13.66,13.796,22.099,32.791,22.099,53.765c-0.001,42.157-34.094,76.329-76.15,76.33
			c-12.258,0-23.84-2.905-34.099-8.062c13.361,11.971,30.995,19.249,50.325,19.249c41.723,0,75.546-33.903,75.546-75.723
			C1025.724,634.034,1010.554,609.581,988.002,596.481z"/>
		<path fill="#F7A932" d="M578.716,1275.127c54.427,55.494,111.464,108.996,160.334,148.273
			c12.682-3.114,28.775-11.759,42.976-24.901c14.304-13.223,26.71-30.964,32.131-52.139c-16.573-17.03-35.068-35.921-54.696-55.91
			C698.93,1290.702,638.331,1285.61,578.716,1275.127z"/>
		<path fill="#F7A932" d="M859.598,1412.167c26.869,24.429,63.133,34.619,99.691,34.62c1.44,0,2.88-0.017,4.32-0.047
			c23.193-64.648,48.087-130.002,73.974-195.394c-43.305,12.34-87.437,21.766-131.989,28.277
			C889.484,1323.528,874.146,1367.718,859.598,1412.167z"/>
		<path fill="#F7A932" d="M1266.971,1398.5c14.201,13.142,30.295,21.787,42.976,24.901
			c62.45-50.192,138.235-123.613,204.866-194.732c27.45-29.265,53.308-58.164,76.101-84.872
			c-22.792-26.714-48.651-55.613-76.101-84.878c-16.462-17.571-33.483-35.281-50.724-52.749
			c-28.534,27.264-58.645,52.894-90.135,76.732c19.786,20.083,39.618,40.214,58.859,59.771l1.144,1.162l-1.145,1.163
			c-68.042,69.074-143.42,145.309-197.972,201.364C1240.261,1367.536,1252.666,1385.276,1266.971,1398.5z"/>
		<path fill="#65BA94" d="M472.099,704.794c-26.753-11.406-47.099-35.909-55.078-63.806c-6.69,11.037-10.541,23.991-10.542,37.854
			c0.002,20.169,8.152,38.413,21.337,51.633c13.189,13.216,31.39,21.386,51.511,21.387c20.122-0.001,38.324-8.17,51.513-21.387
			c7.326-7.345,13.097-16.243,16.78-26.159C523.76,714.245,495.935,714.96,472.099,704.794z"/>
		<path fill="#ED694A" d="M758.151,706.079c6.314-6.33,11.471-13.812,15.134-22.105c-22.972,8.478-49.135,8.649-71.69-0.986
			c-28.098-11.973-49.151-38.48-56.176-68.129c-7.356,11.404-11.626,24.992-11.626,39.589c0.001,20.169,8.151,38.413,21.336,51.632
			c13.188,13.216,31.389,21.385,51.512,21.386C726.762,727.464,744.963,719.294,758.151,706.079z"/>
		<path fill="#F7C334" d="M985.462,701.878c13.185-13.219,21.336-31.463,21.337-51.633c0-0.085-0.001-0.171-0.002-0.256
			c-27.19,22.043-66.845,28.306-99.182,14.502c-17.666-7.535-32.546-20.82-42.908-36.997c-2.34,7.159-3.606,14.805-3.606,22.751
			c0.001,20.169,8.152,38.414,21.337,51.633c13.188,13.217,31.391,21.386,51.513,21.388
			C954.072,723.265,972.273,715.095,985.462,701.878z"/>
	</g>
</g>
<g>
	<g>
		<rect x="1426.584" y="1642.783" fill="#9F91C5" width="402.263" height="311.917"/>
		<rect x="1449.112" y="1712.765" fill="#BAB0D8" width="122.232" height="27.064"/>
		<rect x="1592.872" y="1712.765" fill="#BAB0D8" width="213.448" height="27.064"/>
		<rect x="1449.112" y="1757.051" fill="#BAB0D8" width="357.208" height="27.064"/>
		<rect x="1449.112" y="1801.338" fill="#BAB0D8" width="122.232" height="27.064"/>
		<rect x="1592.872" y="1801.338" fill="#BAB0D8" width="213.448" height="27.064"/>
		<rect x="1449.112" y="1845.624" fill="#BAB0D8" width="357.208" height="27.064"/>
		<rect x="1449.112" y="1889.911" fill="#BAB0D8" width="122.232" height="27.063"/>
		<rect x="1592.872" y="1889.911" fill="#BAB0D8" width="213.448" height="27.063"/>
	</g>
	<path fill="#BAB0D8" d="M1805.635,1684.542l-7.74-7.708l7.709-7.74c0.906-0.911,0.903-2.383-0.006-3.29
		c-0.91-0.906-2.383-0.904-3.29,0.006l-7.708,7.74l-7.739-7.709c-0.911-0.906-2.383-0.903-3.29,0.007
		c-0.906,0.91-0.904,2.383,0.006,3.289l7.74,7.709l-7.709,7.739c-0.906,0.91-0.903,2.383,0.006,3.289
		c0.186,0.185,0.394,0.332,0.617,0.441c0.87,0.428,1.951,0.278,2.673-0.447l7.708-7.74l7.739,7.709
		c0.911,0.906,2.383,0.903,3.29-0.006c0.185-0.185,0.331-0.394,0.441-0.616C1806.51,1686.345,1806.36,1685.264,1805.635,1684.542z"
		/>
	<g>
		<path fill="#BAB0D8" d="M1766.855,1690.072h-13.141c-3.532,0-6.404-2.873-6.404-6.404v-13.141c0-3.531,2.872-6.404,6.404-6.404
			h13.141c3.532,0,6.404,2.873,6.404,6.404v13.141C1773.259,1687.198,1770.387,1690.072,1766.855,1690.072z M1753.714,1667.574
			c-1.628,0-2.953,1.325-2.953,2.953v13.141c0,1.628,1.325,2.953,2.953,2.953h13.141c1.628,0,2.952-1.325,2.952-2.953v-13.141
			c0-1.628-1.325-2.953-2.952-2.953H1753.714z"/>
	</g>
	<path fill="#BAB0D8" d="M1738.003,1685.758h-18.76c-1.189,0-2.157,0.967-2.157,2.157s0.967,2.157,2.157,2.157h18.76
		c1.189,0,2.157-0.967,2.157-2.157S1739.192,1685.758,1738.003,1685.758z"/>
</g>
<g>
	<g>
		<rect x="244.191" y="124.52" fill="#9F91C5" width="402.263" height="311.917"/>
		<rect x="266.719" y="194.502" fill="#BAB0D8" width="122.232" height="27.063"/>
		<rect x="410.478" y="194.502" fill="#BAB0D8" width="213.448" height="27.063"/>
		<rect x="266.719" y="238.788" fill="#BAB0D8" width="357.208" height="27.064"/>
		<rect x="266.719" y="283.074" fill="#BAB0D8" width="122.232" height="27.064"/>
		<rect x="410.478" y="283.074" fill="#BAB0D8" width="213.448" height="27.064"/>
		<rect x="266.719" y="327.361" fill="#BAB0D8" width="357.208" height="27.063"/>
		<rect x="266.719" y="371.647" fill="#BAB0D8" width="122.232" height="27.064"/>
		<rect x="410.478" y="371.647" fill="#BAB0D8" width="213.448" height="27.064"/>
	</g>
	<path fill="#BAB0D8" d="M623.242,166.278l-7.74-7.708l7.709-7.74c0.906-0.91,0.904-2.383-0.007-3.289
		c-0.91-0.907-2.383-0.904-3.29,0.007l-7.708,7.739l-7.739-7.709c-0.91-0.907-2.383-0.904-3.29,0.007
		c-0.906,0.91-0.904,2.383,0.007,3.29l7.74,7.708l-7.709,7.74c-0.906,0.91-0.904,2.383,0.006,3.29
		c0.186,0.185,0.394,0.331,0.617,0.44c0.87,0.427,1.951,0.277,2.673-0.447l7.708-7.74l7.74,7.709
		c0.91,0.906,2.383,0.903,3.289-0.007c0.185-0.185,0.331-0.394,0.441-0.616C624.117,168.081,623.967,167,623.242,166.278z"/>
	<g>
		<path fill="#BAB0D8" d="M584.462,171.808h-13.141c-3.532,0-6.404-2.873-6.404-6.403v-13.142c0-3.531,2.872-6.404,6.404-6.404
			h13.141c3.532,0,6.404,2.873,6.404,6.404v13.142C590.866,168.935,587.994,171.808,584.462,171.808z M571.321,149.31
			c-1.628,0-2.953,1.325-2.953,2.952v13.142c0,1.628,1.325,2.952,2.953,2.952h13.141c1.628,0,2.953-1.325,2.953-2.952v-13.142
			c0-1.628-1.325-2.952-2.953-2.952H571.321z"/>
	</g>
	<path fill="#BAB0D8" d="M555.609,167.494h-18.76c-1.189,0-2.157,0.967-2.157,2.157c0,1.189,0.967,2.157,2.157,2.157h18.76
		c1.189,0,2.157-0.967,2.157-2.157C557.766,168.461,556.799,167.494,555.609,167.494z"/>
</g>
<g>
	<rect x="1252.048" y="228.908" fill="#BAB0D8" width="516.359" height="39.122"/>
	<rect x="1252.048" y="292.926" fill="#BAB0D8" width="176.691" height="39.121"/>
	<rect x="1459.859" y="292.926" fill="#BAB0D8" width="308.548" height="39.121"/>
</g>
<g>
	<rect x="310.189" y="1719.014" fill="#BAB0D8" width="516.359" height="39.121"/>
	<rect x="310.189" y="1783.031" fill="#BAB0D8" width="176.69" height="39.122"/>
	<rect x="517.999" y="1783.031" fill="#BAB0D8" width="308.549" height="39.122"/>
</g>
<g>
	<g>
		<path fill="#BAB0D8" d="M1071.049,1860.96c-1.449,0-2.9-0.543-4.02-1.634l-24.445-23.808c-1.986-1.935-3.219-4.548-3.3-7.319
			c-0.084-2.858,0.972-5.568,2.962-7.611l23.947-24.588c2.221-2.28,5.868-2.328,8.148-0.108c2.28,2.22,2.328,5.868,0.108,8.148
			l-20.768,21.324c-1.345,1.382-1.317,3.593,0.065,4.939l21.324,20.768c2.28,2.221,2.328,5.869,0.108,8.148
			C1074.047,1860.378,1072.548,1860.96,1071.049,1860.96z"/>
	</g>
	<g>
		<path fill="#BAB0D8" d="M1128.708,1860.96c1.449,0,2.9-0.543,4.02-1.634l24.445-23.808c1.986-1.935,3.219-4.548,3.3-7.319
			c0.084-2.858-0.972-5.568-2.962-7.611l-23.947-24.588c-2.221-2.28-5.868-2.328-8.148-0.108c-2.28,2.22-2.328,5.868-0.108,8.148
			l20.768,21.324c1.346,1.382,1.317,3.593-0.065,4.939l-21.324,20.768c-2.28,2.221-2.328,5.869-0.108,8.148
			C1125.71,1860.378,1127.209,1860.96,1128.708,1860.96z"/>
	</g>
	<g>
		<path fill="#BAB0D8" d="M1090.057,1862.546c-0.555,0-1.118-0.089-1.672-0.277c-2.722-0.924-4.18-3.879-3.257-6.601l19.046-56.148
			c0.923-2.722,3.879-4.18,6.6-3.257c2.722,0.923,4.18,3.878,3.257,6.6l-19.046,56.147
			C1094.25,1861.18,1092.226,1862.546,1090.057,1862.546z"/>
	</g>
</g>
<g>
	<g>
		<path fill="#BAB0D8" d="M921.248,284.878c-1.449,0-2.9-0.543-4.02-1.634l-24.445-23.808c-1.986-1.934-3.219-4.548-3.3-7.319
			c-0.084-2.859,0.972-5.568,2.962-7.611l23.947-24.588c2.221-2.28,5.868-2.328,8.148-0.108c2.28,2.22,2.328,5.868,0.108,8.148
			l-20.768,21.324c-1.346,1.382-1.317,3.594,0.065,4.94l21.324,20.768c2.28,2.22,2.328,5.868,0.108,8.148
			C924.247,284.296,922.748,284.878,921.248,284.878z"/>
	</g>
	<g>
		<path fill="#BAB0D8" d="M978.909,284.878c1.449,0,2.899-0.543,4.02-1.634l24.445-23.808c1.986-1.934,3.219-4.548,3.3-7.319
			c0.084-2.859-0.972-5.568-2.962-7.611l-23.947-24.588c-2.22-2.28-5.868-2.328-8.148-0.108c-2.28,2.22-2.328,5.868-0.108,8.148
			l20.768,21.324c1.346,1.382,1.317,3.594-0.065,4.94l-21.324,20.768c-2.28,2.22-2.328,5.868-0.108,8.148
			C975.91,284.296,977.408,284.878,978.909,284.878z"/>
	</g>
	<g>
		<path fill="#BAB0D8" d="M940.257,286.464c-0.554,0-1.118-0.089-1.672-0.277c-2.722-0.923-4.18-3.878-3.257-6.6l19.046-56.148
			c0.923-2.722,3.879-4.18,6.6-3.257c2.722,0.923,4.18,3.878,3.257,6.6l-19.046,56.147
			C944.45,285.098,942.426,286.464,940.257,286.464z"/>
	</g>
</g>
<path fill="#BAB0D8" d="M170.296,1175.441l-21.342-21.257l21.257-21.342c2.5-2.51,2.492-6.572-0.018-9.072
	c-2.509-2.5-6.572-2.492-9.072,0.018l-21.257,21.343l-21.342-21.257c-2.51-2.5-6.572-2.492-9.072,0.018
	c-2.5,2.509-2.492,6.571,0.018,9.071l21.343,21.257l-21.257,21.342c-2.5,2.51-2.492,6.571,0.019,9.071
	c0.511,0.509,1.086,0.914,1.7,1.215c2.399,1.178,5.381,0.766,7.371-1.233l21.257-21.342l21.342,21.257
	c2.51,2.5,6.571,2.492,9.071-0.018c0.509-0.511,0.914-1.086,1.215-1.7C172.707,1180.414,172.295,1177.432,170.296,1175.441z"/>
<path fill="#BAB0D8" d="M2005.899,595.156l-21.342-21.257l21.257-21.342c2.501-2.51,2.492-6.572-0.018-9.072
	c-2.509-2.5-6.571-2.492-9.071,0.018l-21.257,21.342l-21.342-21.257c-2.51-2.5-6.571-2.492-9.071,0.018
	c-2.5,2.509-2.492,6.571,0.018,9.071l21.342,21.257l-21.257,21.342c-2.5,2.51-2.492,6.571,0.018,9.071
	c0.511,0.509,1.086,0.914,1.7,1.215c2.399,1.178,5.381,0.765,7.372-1.233l21.257-21.342l21.342,21.257
	c2.51,2.5,6.572,2.492,9.072-0.018c0.509-0.511,0.913-1.086,1.215-1.7C2008.31,600.129,2007.898,597.148,2005.899,595.156z"/>
<g>
	<path fill="#BAB0D8" d="M1952.548,1101.227c16.051,0,16.078-24.945,0-24.945
		C1936.497,1076.282,1936.471,1101.227,1952.548,1101.227L1952.548,1101.227z"/>
</g>
<g>
	<path fill="#BAB0D8" d="M1285.723,1928.097c0-1.185,0-2.371,0-3.557c0.065-1.717-0.293-3.319-1.074-4.806
		c-0.503-1.546-1.363-2.884-2.579-4.014c-1.13-1.216-2.468-2.076-4.014-2.579c-1.486-0.781-3.088-1.139-4.806-1.075
		c-1.105,0.149-2.211,0.297-3.316,0.446c-2.113,0.593-3.947,1.662-5.504,3.208c-0.65,0.841-1.3,1.683-1.95,2.524
		c-1.128,1.946-1.696,4.044-1.703,6.295c0,1.186,0,2.371,0,3.557c-0.065,1.717,0.293,3.319,1.074,4.806
		c0.503,1.546,1.363,2.884,2.579,4.014c1.13,1.216,2.468,2.076,4.014,2.579c1.486,0.781,3.088,1.139,4.805,1.074
		c1.105-0.149,2.211-0.297,3.316-0.446c2.113-0.593,3.947-1.662,5.504-3.208c0.65-0.842,1.3-1.683,1.95-2.524
		C1285.148,1932.447,1285.716,1930.349,1285.723,1928.097L1285.723,1928.097z"/>
</g>
<g>
	<path fill="#BAB0D8" d="M505.038,1947.683c16.051,0,16.078-24.945,0-24.945C488.987,1922.738,488.96,1947.683,505.038,1947.683
		L505.038,1947.683z"/>
</g>
<g>
	<path fill="#BAB0D8" d="M145.828,1503.116c16.051,0,16.078-24.945,0-24.945C129.777,1478.171,129.75,1503.116,145.828,1503.116
		L145.828,1503.116z"/>
</g>
<g>
	<path fill="#BAB0D8" d="M166.878,674.123c16.051,0,16.077-24.945,0-24.945C150.826,649.178,150.8,674.123,166.878,674.123
		L166.878,674.123z"/>
</g>
<g>
	<path fill="#BAB0D8" d="M999.397,429.042c16.051,0,16.078-24.945,0-24.945C983.345,404.096,983.319,429.042,999.397,429.042
		L999.397,429.042z"/>
</g>
<g>
	<path fill="#BAB0D8" d="M184.95,863.816c8.025,0,8.039-12.473,0-12.473C176.924,851.344,176.911,863.816,184.95,863.816
		L184.95,863.816z"/>
</g>
<g>
	<path fill="#BAB0D8" d="M764.665,383.683c8.025,0,8.039-12.473,0-12.473C756.64,371.211,756.626,383.683,764.665,383.683
		L764.665,383.683z"/>
</g>
<g>
	<path fill="#BAB0D8" d="M1589.782,451.258c8.026,0,8.039-12.473,0-12.473C1581.756,438.785,1581.743,451.258,1589.782,451.258
		L1589.782,451.258z"/>
</g>
<g>
	<path fill="#BAB0D8" d="M1948.992,952.729c8.026,0,8.039-12.473,0-12.473C1940.966,940.257,1940.953,952.729,1948.992,952.729
		L1948.992,952.729z"/>
</g>
<g>
	<path fill="#BAB0D8" d="M1920.955,1588.72c8.025,0,8.039-12.473,0-12.473C1912.93,1576.247,1912.916,1588.72,1920.955,1588.72
		L1920.955,1588.72z"/>
</g>
<g>
	<path fill="#BAB0D8" d="M882.031,1969.899c8.026,0,8.039-12.473,0-12.473C874.005,1957.426,873.992,1969.899,882.031,1969.899
		L882.031,1969.899z"/>
</g>
<g>
	<path fill="#BAB0D8" d="M377.003,1603.576c8.026,0,8.039-12.473,0-12.473C368.977,1591.103,368.964,1603.576,377.003,1603.576
		L377.003,1603.576z"/>
</g>
<g>
</g>
<g>
</g>
<g>
</g>
<g>
</g>
<g>
</g>
<g>
</g>
</svg>
